<svg width="520" height="211" xmlns="http://www.w3.org/2000/svg">
 <!-- Created with Method Draw - http://github.com/duopixel/Method-Draw/ -->

 <g>
  <title>background</title>
  <rect x="-1" y="-1" width="522" height="213" id="canvas_background" fill="none"/>
  <g id="canvasGrid" display="none">
   <rect id="svg_2" width="100%" height="100%" x="0" y="0" stroke-width="0" fill="url(#gridpattern)"/>
  </g>
 </g>
 <g>
  <title>Layer 1</title>
  <line fill="none" stroke="#000" stroke-width="1.5" x1="428.5" y1="-59.54688" x2="430.5" y2="-65.54688" id="svg_1" stroke-linejoin="undefined" stroke-linecap="undefined"/>
  <rect fill="none" stroke="#e3d1c3" stroke-width="1.5" x="442.5" y="423.45313" width="0" height="1" id="svg_7"/>
  <rect fill="none" stroke-opacity="null" fill-opacity="null" x="175" y="98.75" width="150" height="90" id="svg_8" rx="5" stroke="#e3d1c3"/>
  <rect fill="none" stroke="#e3d1c3" stroke-opacity="null" fill-opacity="null" x="180.83247" y="105.03573" width="139.166" height="73.33298" id="svg_10" rx="3"/>
  <ellipse fill="none" stroke="#e3d1c3" stroke-opacity="null" fill-opacity="null" cx="253.29785" cy="183.48664" id="svg_11" rx="3.02323" ry="2.32556"/>
  <line fill="none" stroke-opacity="null" fill-opacity="null" x1="259.24425" y1="188.87795" x2="263.4814" y2="206.0124" id="svg_13" stroke-linejoin="null" stroke-linecap="null" stroke="#e3d1c3"/>
  <line fill="none" stroke="#e3d1c3" stroke-opacity="null" fill-opacity="null" x1="247.14618" y1="189.12485" x2="242.70199" y2="206" id="svg_14" stroke-linejoin="null" stroke-linecap="null"/>
  <rect fill="none" stroke="#e3d1c3" stroke-width="null" stroke-opacity="null" fill-opacity="null" x="237.27021" y="206.1609" width="32.09691" height="5.18488" id="svg_15" rx="3"/>
  <rect fill="none" stroke-width="null" stroke-opacity="null" fill-opacity="null" x="295.2167" y="149.66709" width="96.95629" height="61.30421" id="svg_16" rx="3" stroke="#e3d1c3"/>
  <rect fill="none" stroke="#e3d1c3" stroke-width="null" stroke-opacity="null" fill-opacity="null" x="300.86886" y="154.67589" width="86.08676" height="47.82598" id="svg_17" rx="1"/>
  <ellipse fill="none" stroke="#e3d1c3" stroke-width="null" stroke-opacity="null" fill-opacity="null" cx="342.62115" cy="206.48839" id="svg_18" rx="2.09251" ry="1.98238"/>
  <rect fill="none" stroke-width="null" stroke-opacity="null" fill-opacity="null" x="135.29178" y="150.71391" width="33.88661" height="60.33701" id="svg_19" rx="3" stroke="#e3d1c3"/>
  <rect fill="none" stroke-width="null" stroke-opacity="null" fill-opacity="null" x="138.00974" y="153.69498" width="28.65456" height="51.0714" id="svg_21" rx="1" stroke="#e3d1c3"/>
  <ellipse fill="none" stroke="#e3d1c3" stroke-width="null" stroke-opacity="null" fill-opacity="null" cx="152.04463" cy="208.04274" id="svg_22" rx="1.94929" ry="1.75436"/>
  <path fill="none" stroke="#e3d1c3" stroke-opacity="null" fill-opacity="null" d="m207.85988,127.2634c-9.9235,0 -17.96787,7.94444 -17.96787,17.74466c0,9.80022 8.04437,17.74466 17.96787,17.74466c9.9235,0 17.96787,-7.94444 17.96787,-17.74466c0,-9.80022 -8.04437,-17.74466 -17.96787,-17.74466zm-9.57981,7.34253c0.15082,0.06715 0.31525,0.12697 0.34615,0.16726c0.04821,0.06227 0.11126,0.25151 0.03214,0.2979c-0.08036,0.04762 -0.20646,0.03174 -0.22376,-0.10988c-0.01607,-0.1404 -0.03214,-0.15628 -0.22253,-0.21976c-0.0272,-0.00855 -0.04327,-0.01221 -0.06305,-0.01831c0.04327,-0.03907 0.08777,-0.07814 0.13104,-0.11721l0.00001,0zm-0.64039,0.60313c0.03832,0.10622 0.1397,0.15261 0,0.20755c-0.07418,0.0293 -0.15082,0.03419 -0.21511,0.02564c0.0717,-0.07692 0.1397,-0.15872 0.21511,-0.23319zm10.2202,23.87972c-7.86388,0 -14.25908,-6.31575 -14.25908,-14.08072c0,-0.10378 0.0136,-0.20511 0.01607,-0.31011c0.00495,-0.00366 0.00989,-0.00733 0.01484,-0.01099c0.15948,-0.12453 0.34986,-0.43831 0.41291,-0.54941c0.06429,-0.10866 0.22376,-0.18802 0.14341,-0.31255c-0.07294,-0.11721 -0.36099,-0.28081 -0.50316,-0.31866c0.01236,-0.12087 0.03956,-0.23808 0.05563,-0.35895c0.07788,0.09401 0.16937,0.20755 0.25714,0.23686c0.14217,0.04639 0.61937,0.06349 0.69973,0.06349c0.07788,0 0.41291,0.01709 0.4772,-0.07814c0.06305,-0.09401 0.11126,-0.09401 0.19038,-0.09401c0.07912,0 0.22253,0.28203 0.33503,0.31377c0.11003,0.03174 0.31772,0.01587 0.30165,0.22098c-0.01484,0.20267 0.09519,0.37726 0.20646,0.39191c0.11126,0.01587 0.36593,-0.23686 0.36593,-0.23686s0,0.39313 -0.01484,0.53476c-0.01607,0.13918 0.17431,0.65929 0.17431,0.65929s0.2386,0.4847 0.30165,0.5958c0.06429,0.10988 0.33379,0.43953 0.33379,0.58115c0,0.14285 0.03214,0.36261 0.12857,0.36261s0.19162,-0.25151 0.30165,-0.409c0.1125,-0.15628 0.14464,-0.37848 0.19162,-0.53476c0.04821,-0.1575 0.04821,-0.43953 0.04821,-0.54941c0,-0.1111 0.09396,-0.20511 0.31772,-0.29912c0.22376,-0.09401 0.38201,-0.36139 0.57239,-0.50301c0.19162,-0.14163 0.17555,-0.37726 0.55879,-0.37726c0.38077,0 0.34863,0 0.44506,-0.09523c0.09519,-0.09401 0.19038,-0.15628 0.23736,0.01587c0.04821,0.17337 0.31772,0.42365 0.36593,0.48714c0.04821,0.06349 0.14341,0.23564 0.12857,0.42488c-0.01607,0.1868 0.01484,0.40778 0.09519,0.40778c0.07912,0 0.2386,-0.26738 0.2386,-0.26738s0.34986,-0.23441 0.33379,0.01709c-0.01731,0.25029 0.03091,0.51889 0.03091,0.67394c0,0.15872 0.28681,0.53476 0.28681,0.44197c0,-0.09645 0.12734,-0.36139 0.12734,-0.50423c0,-0.13918 0.07912,-0.07692 0.28558,0.06227c0.20646,0.14163 0.34986,0.4261 0.34986,0.4261s0.20769,0.18802 0.2386,0.26738c0.03214,0.07814 0.25467,-0.03052 0.30165,-0.12697c0.04821,-0.09279 0.08036,-0.1404 0.20646,-0.17215c0.12857,-0.03174 0.28558,-0.03174 0.33503,-0.20511c0.04821,-0.17337 0.19038,-0.37604 0,-0.6129c-0.19038,-0.23564 -0.28681,-0.39191 -0.42898,-0.50301c-0.14464,-0.10988 -0.25467,-0.39313 -0.25467,-0.39313s0.30165,-0.26616 0.39684,-0.36139c0.09766,-0.09401 0.2386,-0.03052 0.25591,0.07814c0.01607,0.1111 -0.14217,0.20511 -0.17431,0.44075c-0.03214,0.23441 0.19038,0.31377 0.25467,0.23441c0.06305,-0.07936 0.22253,-0.26738 0.22253,-0.31377c0,-0.04762 -0.11003,-0.03174 -0.1261,-0.20389c-0.01607,-0.17337 0.20522,-0.29912 0.28434,-0.25273c0.08159,0.04762 0.5897,-0.06227 0.8283,-0.18802s0.38077,-0.39313 0.52541,-0.50301c0.14341,-0.10866 0.63668,-0.47127 0.60453,-0.64342c-0.03214,-0.17337 0.01484,-0.40778 -0.11126,-0.62877c-0.12734,-0.21976 -0.28681,-0.36017 -0.34986,-0.4554c-0.06305,-0.09401 0.27074,-0.10988 0.42898,-0.25151c0.15948,-0.14163 0,-0.26738 -0.07912,-0.25151c-0.07912,0.01587 -0.28681,0.06349 -0.36593,0.04762c-0.07912,-0.01587 -0.12734,-0.09401 -0.25467,-0.18924c-0.1261,-0.09401 0.03214,-0.23441 0.1125,-0.21854c0.07912,0.01587 0.28434,-0.1575 0.38077,-0.23564c0.09519,-0.07814 0.2386,-0.1404 0.19038,-0.06227c-0.04698,0.07814 -0.15824,0.36139 -0.03214,0.37726c0.12857,0.01587 0.43022,-0.23564 0.47967,-0.21976c0.04698,0.01587 0.1261,0.21976 0.07912,0.31377c-0.04821,0.09401 -0.04821,0.25151 0.01607,0.23564c0.06305,-0.01587 0.19038,-0.1575 0.22253,-0.10988c0.03338,0.04762 0.19038,0.14163 0.11126,0.31377c-0.07788,0.17337 -0.2386,0.23564 -0.04821,0.34674c0.19038,0.10866 0.25467,0.01465 0.39808,-0.06349c0.14217,-0.07814 0.2386,-0.42365 0.15824,-0.53476c-0.07912,-0.10988 -0.26951,-0.32964 -0.26951,-0.40778c0,-0.07814 0.31772,-0.07814 0.31772,-0.20389s0.11126,-0.21976 0.22253,-0.26738c0.1125,-0.04762 0.25467,-0.25151 0.30165,-0.18802c0.04821,0.06349 0.33503,0.14163 0.41291,0.04762c0.07912,-0.09401 0.49451,-0.43953 0.74794,-0.62877c0.25467,-0.18802 0.34986,-0.40778 0.41538,-0.62877c0.06305,-0.21976 0.15824,-0.36139 0.1261,-0.53354l0,0c0.09519,0.21976 0.11126,0.37726 0.09519,0.54941c-0.01607,0.17337 0,0.53476 0.03214,0.58115c0.03091,0.04762 0.15948,0.15628 0.23736,0.12575c0.07912,-0.03052 -0.03091,-0.34552 -0.03091,-0.40778c0,-0.06349 0.11126,-0.1575 0.17555,-0.17337c0.06429,-0.01587 0,-0.28203 -0.08036,-0.39313c-0.07788,-0.10988 -0.19038,-0.17337 -0.1261,-0.18802c0.06305,-0.01587 0.14217,-0.14163 0.09519,-0.17337c-0.04821,-0.03052 -0.01731,-0.14163 -0.12734,-0.10988c-0.08036,0.0232 -0.29794,-0.01831 -0.29052,0.11599c-0.04574,-0.1343 -0.14341,-0.22343 -0.26703,-0.21c-0.14341,0.01587 -0.22376,0.09401 -0.36593,0.09401s-0.03091,-0.21976 -0.09519,-0.21976c-0.06305,0 -0.20769,0.20389 -0.28558,0.09401c-0.07912,-0.10988 0.22253,-0.25151 0.46113,-0.32964c0.23736,-0.07814 0.63544,-0.53476 0.79615,-0.55063c0.15824,-0.01587 0.55632,0.03174 0.90618,0.01587c0.34986,-0.01587 0.46113,-0.1575 0.57239,-0.07814s0.34986,0.17337 0.49327,0.1575c0.14341,-0.01709 0.07912,0 0.30165,-0.1575c0.22253,-0.1575 0.43022,-0.23564 0.54148,-0.36139c0.11126,-0.12575 0.41415,-0.21976 0.43022,-0.09401c0.01731,0.12575 -0.03214,0.25151 0.09519,0.25151s0.31896,-0.12575 0.4772,-0.18802c0.15948,-0.06227 0.28558,-0.14163 0.28558,-0.14163s-0.65151,0.43953 -0.80975,0.53476c-0.15948,0.09401 -0.54148,0.1575 -0.70096,0.34552c-0.15824,0.18924 -0.25343,0.25151 -0.23736,0.45662c0.01731,0.20389 0.28558,0.47127 0.15824,0.65929c-0.12734,0.18802 -0.17431,0.4554 -0.17431,0.4554s0.19038,-0.26738 0.46113,-0.43953s0.43022,-0.40778 0.52541,-0.50301s0.38201,-0.1111 0.38201,-0.22098s0.07912,-0.25151 0.12857,-0.37726c0.04698,-0.12575 -0.09519,-0.09523 0,-0.25151c0.09396,-0.1575 0.07912,-0.28325 0.55632,-0.28325s0.31772,0.03174 0.69973,0.01587c0.38201,-0.01587 0.52418,-0.20389 0.89011,-0.29912c0.36593,-0.09401 0.65151,-0.15628 0.76401,-0.10866c0.11126,0.04639 0.28681,0.01465 0.17431,-0.09523c-0.11003,-0.10988 -0.3647,-0.26738 -0.2386,-0.29912c0.12857,-0.03174 0.25591,-0.04762 0.30412,-0.17337c0.04821,-0.12575 -0.17555,-0.34552 -0.04821,-0.47127c0.12857,-0.12575 -0.09519,-0.28203 -0.25591,-0.31377c-0.15824,-0.03052 -0.77885,0.03174 -0.90371,-0.03052c-0.12857,-0.06349 -0.33503,-0.14163 -0.39808,-0.09523c-0.06429,0.04762 -0.20769,0.29912 -0.20769,0.29912s-0.11126,0.03052 -0.20769,-0.10988c-0.09396,-0.14163 -0.61813,-0.12575 -0.77761,-0.12575s-0.33503,0.03052 -0.51058,0.04762c-0.17431,0.01587 -0.27074,0.06349 -0.39808,-0.04762c-0.1261,-0.10988 -0.30041,-0.1575 -0.36593,-0.20389c-0.06305,-0.04762 -0.41291,-0.04762 -0.68365,-0.01465c-0.26951,0.03052 -0.54148,0.03052 -0.54148,0.03052s-0.12857,-0.04762 -0.31772,-0.1575c-0.19038,-0.10988 -0.38201,-0.18802 -0.44629,-0.18802c-0.06305,0 -0.55508,0.07814 -0.66635,0c-0.1125,-0.07814 -0.22376,-0.12575 -0.30288,-0.12575s-0.14217,-0.12575 -0.04698,-0.12575s0.54025,-0.12575 0.54025,-0.12575s-0.12734,-0.17337 -0.28558,-0.17337c-0.15824,0 -0.44382,-0.07814 -0.52418,-0.07814s-0.01731,0.07814 -0.17555,0.04762c-0.16071,-0.03174 -0.31896,-0.09523 -0.41415,-0.03174c-0.09396,0.06227 -0.31896,0.15628 -0.07912,0.21976c0.2386,0.06349 0.46113,0 0.52541,0.09523c0.06429,0.09401 0,0.1404 0,0.20389s-0.12734,0.23564 -0.20646,0.26738c-0.07912,0.03052 -0.17679,-0.04762 -0.33379,0.03052c-0.15948,0.07814 -0.55756,0.01587 -0.60577,0.06349c-0.04698,0.04762 -0.14217,-0.12575 -0.22253,-0.09401c-0.07912,0.03052 -0.28681,0.23564 -0.39808,0.21976c-0.11003,-0.01587 -0.25467,-0.12575 -0.25467,-0.25151s-0.04698,-0.28325 -0.09519,-0.31499c-0.04698,-0.03052 -0.39808,-0.04762 -0.52541,-0.03052c-0.12734,0.01587 -0.52418,0.04639 -0.5897,0.10988c-0.06429,0.06349 -0.2386,0.10988 -0.34986,0.10988s-0.20646,-0.10988 -0.44506,-0.14163c-0.23736,-0.03174 -0.76278,-0.04762 -0.82706,-0.03174s-0.26951,-0.03052 -0.19162,-0.09401c0.08036,-0.06227 0.31772,-0.26738 0.17679,-0.36017c-0.14464,-0.09523 -0.4636,-0.09523 -0.60453,-0.10988c-0.14464,-0.01587 -0.28681,-0.04762 -0.51058,-0.01587c-0.22376,0.03174 -0.27074,0.14163 -0.36593,0.04762c-0.09519,-0.09401 0.2386,0.04762 -0.09519,-0.09401c-0.33379,-0.14163 -0.49327,-0.12575 -0.5897,-0.07814c-0.09519,0.04762 0.01607,0.03052 -0.23736,0.12575c-0.25467,0.09523 -0.39808,0.14163 -0.46236,0.1575c-0.06305,0.01465 -0.45989,-0.07936 -0.5081,-0.1111c-0.04698,-0.03052 -0.22376,0.01587 -0.38201,0.07814s-0.27569,0.15628 -0.43393,0.12575c-0.15948,-0.03296 -0.41415,-0.03296 -0.57363,0.03052c-0.15948,0.06227 -0.27074,0.06227 -0.42898,0.17215c-0.16071,0.10988 -0.46113,0.17337 -0.46113,0.17337s-0.07541,-0.00366 -0.1669,-0.00855c2.50467,-2.1488 5.7647,-3.46127 9.33627,-3.46127c7.86388,0 14.25908,6.31575 14.25908,14.08194s-6.39643,14.08072 -14.25908,14.08072l0,-0.00002zm-1.37473,-9.29476c0,0 0.25591,-0.03174 0.25591,-0.14285c0,-0.10866 -0.25591,-0.25029 -0.34863,-0.12453c-0.09643,0.12453 -0.27074,0.25029 -0.25591,0.36139c0.02349,0.17215 0.34863,-0.09401 0.34863,-0.09401zm-0.01607,-3.53697c-0.22376,0.28447 -0.20646,0.22221 -0.36593,0.15628c-0.15824,-0.06105 -0.41291,0.14163 -0.36593,0.22221c0.04821,0.07814 0.39808,-0.01709 0.4772,0.12453c0.08036,0.14163 0.08036,0.1575 0.2386,0.12697c0.15824,-0.03174 0.31772,-0.25029 0.27074,-0.36017c-0.04698,-0.11354 -0.25467,-0.26982 -0.25467,-0.26982l-0.00001,0zm-0.04698,1.49195c-0.06305,0 -0.50934,0.07814 -0.55756,0.09645c-0.04821,0.01587 -0.33379,-0.03052 -0.33379,-0.03052c-0.11126,0.10866 -0.03214,0.21854 0.14341,0.20267s0.54148,-0.06349 0.6206,-0.06349c0.08036,0 0.19038,-0.20511 0.12734,-0.20511zm-0.68365,-4.36718c-0.23489,0.03663 -0.38077,0.53476 -0.19162,0.51889c0.19162,-0.01465 0.39808,-0.54941 0.19162,-0.51889zm0.55632,2.7971c-0.06429,-0.07814 -0.22376,-0.33087 -0.39931,-0.26738c-0.05192,0.02076 -0.18915,0.29912 -0.01484,0.29912c0.17555,0 0.47843,0.04639 0.41415,-0.03174zm0.14341,-0.18802c0.28681,-0.01587 0.20646,-0.29912 -0.01607,-0.31377c-0.06305,-0.00488 -0.27074,0.32964 0.01607,0.31377zm3.3886,2.59199c-0.2386,-0.04762 -0.30165,-0.12453 -0.55632,-0.25029c-0.25591,-0.12575 -0.8283,-0.12575 -0.84313,-0.04762c-0.01731,0.07814 0,0 -0.19162,-0.06105c-0.18915,-0.06593 -0.33503,0 -0.38201,-0.1111c-0.04698,-0.1111 -0.15824,-0.14285 -0.30165,-0.00244c-0.11992,0.11843 -0.17555,0.12697 0.09643,0.17459c0.26951,0.04762 0.34986,0.04762 0.23736,0.17215c-0.11126,0.12697 -0.19038,0.28447 -0.09519,0.2979c0.09519,0.01831 0.38201,-0.06105 0.41291,0c0.03214,0.06593 -0.06305,0.07814 0.25591,0.1282c0.31896,0.04517 0.38201,0.15628 0.44382,0.21732c0.06305,0.06349 0.25467,0.2686 0.12857,0.2686c-0.12857,0 -0.27074,0.15628 -0.17555,0.17459c0.09519,0.01587 0.38201,-0.04762 0.39684,0c0.01731,0.04517 0.17679,0.34552 0.33503,0.33087c0.15948,-0.01587 0.25467,-0.2979 0.33379,-0.37848c0.08036,-0.07814 0.39808,-0.12697 0.43146,0.01465c0.03214,0.14163 0.12857,0.28447 0.31772,0.3797c0.19038,0.09279 0.41415,0.18802 0.43022,0.10866c0.01607,-0.07814 -0.09519,-0.37726 -0.22376,-0.42243c-0.12734,-0.05006 -0.34863,-0.31621 -0.34863,-0.42488c0,-0.1111 -0.19162,-0.14285 -0.28681,-0.22221c-0.09643,-0.07936 -0.17679,-0.29912 -0.41538,-0.34674l-0.00001,0.00001zm-11.80509,-2.32583c-0.10385,0.04517 -0.19162,0.58115 0,0.64342c0.19038,0.06349 0.30165,-0.25029 0.2386,-0.33087c-0.06429,-0.07448 -0.09519,-0.3736 -0.2386,-0.31255zm9.13229,1.33567c-0.14588,-0.06105 -0.41415,0.51766 -0.22376,0.56528c0.19162,0.04884 0.33379,-0.51766 0.22376,-0.56528zm0.31896,-5.38908c0.09519,0 0.22253,-0.06227 0.22253,-0.23564c0,-0.17337 0.22253,0 0.33379,-0.01587s0.17431,-0.12575 0.22253,-0.25151c0.00618,-0.01587 0.00989,-0.02564 0.01113,-0.03296c-0.00371,0.0293 -0.00124,0.11354 0.11745,0.14285c0.19038,0.04639 0.25343,-0.07814 0.25343,-0.12575s0.34986,-0.12575 0.41538,-0.17337c0.06305,-0.04639 0.31896,-0.12575 0.33379,-0.18802c0.01607,-0.06227 0,-0.42488 0.07912,-0.4554c0.07912,-0.03174 0.19038,-0.03174 0.06429,-0.25151c-0.12857,-0.22098 -0.12857,-0.42488 -0.28681,-0.33087c-0.11745,0.06959 -0.04698,0.34674 -0.14217,0.53476s-0.17555,0.36139 -0.2386,0.36139s-0.39684,0.12575 -0.49327,0.21976c-0.09396,0.09401 -0.55632,-0.07814 -0.61937,0c-0.06429,0.07814 -0.19038,0.17215 -0.27074,0.23564c-0.08036,0.06227 -0.30288,0.01587 -0.25591,0.20389c0.04451,0.19046 0.15701,0.36261 0.25343,0.36261zm2.1783,-2.01083c0.22253,-0.01587 0.43022,-0.07814 0.43022,-0.07814s0.33503,0.01587 0.28681,-0.14163c-0.04945,-0.15628 -0.39808,-0.17215 -0.4636,-0.15628c-0.06305,0.01587 -0.17555,-0.17337 -0.30165,-0.14163c-0.11868,0.02808 -0.15824,0.18924 -0.15824,0.23564c0,0.04762 -0.44506,0.1404 -0.30288,0.26738c0.14341,0.12453 0.28805,0.03052 0.50934,0.01465l0,0.00001zm-4.37514,8.54879c0.12857,0.07814 0.36593,-0.26738 0.43146,-0.15872c0.06305,0.1111 -0.01607,0.15872 0.09396,0.30034c0.1125,0.13918 0.31896,0.12453 0.31896,0.12453s-0.01607,-0.37726 -0.19162,-0.47249c-0.17555,-0.09401 -0.28681,-0.20267 -0.07912,-0.17215c0.20646,0.03174 0.31772,-0.04762 0.27074,-0.13918c-0.04821,-0.09523 -0.34986,-0.04762 -0.44629,-0.03174s-0.2386,-0.06349 -0.2386,-0.06349c-0.09519,0.0293 -0.07788,0.10866 -0.11126,0.26738c-0.03214,0.15506 -0.17555,0.26494 -0.04821,0.34552l-0.00002,0zm8.67116,3.12552c-0.28558,-0.06349 -0.09519,0.04762 0,0.18802c0.09519,0.14163 0.28681,0.21488 0.31896,0.06105c0.0136,-0.07692 -0.03338,-0.18558 -0.31896,-0.24906l0,-0.00001zm1.22514,3.81655c-0.09519,0.07814 0,0.1111 -0.27074,0.2686c-0.27198,0.15872 -0.60577,0.33087 -0.66882,0.47127c-0.06429,0.14163 0.06305,0.22098 0.31896,0.23441c0.25467,0.01587 0.19038,0.06471 0.36593,-0.12575s0.33503,-0.2979 0.54148,-0.4554c0.20769,-0.15628 0.20769,-0.39313 0.20769,-0.39313s-0.22376,-0.21732 -0.2386,-0.17215c-0.0272,0.0757 -0.16071,0.09523 -0.25591,0.17215l0.00001,0zm-4.2169,-3.81655c0.01731,-0.14163 -0.27074,-0.14163 -0.41291,-0.25273c-0.14341,-0.10866 -0.15824,-0.43831 -0.2386,-0.62877c-0.07912,-0.1868 -0.23736,-0.31377 -0.39808,-0.4847c-0.15824,-0.17459 -0.23736,-0.56772 -0.28434,-0.53476c-0.04821,0.03052 -0.19038,0.48714 -0.07912,0.62877c0.11126,0.14163 -0.04821,0.42488 -0.12734,0.61412c-0.08036,0.1868 -0.27198,-0.03174 -0.43146,-0.12697c-0.15948,-0.09523 -0.38077,-0.15628 -0.49203,-0.26738c-0.11126,-0.1111 0.19162,-0.409 0.1125,-0.52011c-0.08036,-0.10988 -0.50934,-0.01587 -0.55632,-0.01587c-0.04821,0 -0.14341,-0.15628 -0.23984,-0.15628c-0.09519,0 -0.07912,0.31499 -0.07912,0.31499s-0.09643,-0.1111 -0.2386,-0.25273c-0.14464,-0.1404 0.01484,0.09401 -0.12734,0.23564c-0.14464,0.14285 -0.09766,0.09523 -0.15948,0.25151c-0.06305,0.1575 -0.20646,0.09401 -0.34986,-0.06349c-0.14341,-0.15628 -0.22129,-0.04517 -0.31896,0c-0.09519,0.04762 -0.17431,0.31621 -0.22253,0.37726c-0.04821,0.06349 -0.38201,0.14285 -0.46236,0.22221c-0.07912,0.0757 -0.11126,0.32964 -0.11126,0.39313c0,0.06105 -0.33503,0.02808 -0.44629,0.10866c-0.11126,0.07814 -0.28434,0.03052 -0.39684,0.03052c-0.11126,0 -0.49327,0.2979 -0.6206,0.37604c-0.12734,0.08058 -0.12734,0.36383 -0.06305,0.44197c0.06305,0.07692 0.19038,0.26738 0.11126,0.2979c-0.07912,0.03174 -0.12857,0.25151 0.06305,0.43831c0.19038,0.18924 0.12734,0.23686 0.14217,0.33087c0.01731,0.09401 0.09643,0.12697 0.22376,0.28325c0.1261,0.15628 -0.22376,0.28203 -0.27074,0.37848c-0.04821,0.09279 0.1125,0.23441 0.20646,0.31377c0.09519,0.07692 0.33503,0.03174 0.4772,-0.01587c0.14464,-0.04762 0.30288,-0.17459 0.39684,-0.18924c0.09766,-0.01587 0.54148,-0.03174 0.54148,-0.03174s0.15948,-0.23441 0.27074,-0.36139c0.11003,-0.12453 0.45989,-0.01587 0.45989,-0.01587s0.14464,-0.09279 0.52665,-0.17215c0.38201,-0.07936 0.22129,0.07814 0.36593,0.12697c0.14217,0.04517 0.33379,0.0757 0.44382,0.15628c0.11126,0.07814 0,0.26616 -0.01484,0.34552c-0.01731,0.07814 0.27074,0.04639 0.28434,-0.03174c0.01731,-0.07814 0.09519,-0.15628 0.25591,-0.25029c0.15824,-0.09523 0.03091,0.13918 0.09396,0.28203c0.06429,0.14163 0.15948,-0.19168 0.15948,-0.03174c0,0.04762 0.04821,0.09523 0.06305,0.14163c0.01731,0.04762 0.22376,0.06349 0.22376,0.21976c0,0.15872 0,0.25273 0.04821,0.28203c0.04698,0.03174 0.30165,0 0.41415,0.18924c0.11003,0.18802 0.19038,0.01587 0.25343,-0.06349c0.06429,-0.07814 0.28558,0.03174 0.34986,0.09523c0.06429,0.06105 0.2386,-0.12697 0.47843,-0.18924c0.23736,-0.06227 0.20646,-0.04762 0.27074,-0.1404c0.06305,-0.09523 0.11126,-0.34552 0.25343,-0.53476c0.14217,-0.1868 0.33503,-0.51766 0.33503,-0.77039c0,-0.25151 -0.01731,-0.83266 -0.19162,-1.0976c-0.17431,-0.26738 -0.50687,-0.53598 -0.49203,-0.67638l0.00003,-0.00001zm-0.58723,3.8483c-0.08036,-0.01587 -0.25591,-0.0757 -0.25591,-0.0757c-0.17555,0.17215 0.17555,0.17215 0.12857,0.34552c-0.04821,0.17215 0.2386,0.10866 0.31772,0.07814c0.07788,-0.03296 0.27198,-0.39435 0.2386,-0.48714c-0.03091,-0.09645 -0.34986,0.15506 -0.42898,0.13918zm5.90193,-0.72278c-0.06429,0 -0.09519,0.07814 -0.23736,0c-0.14464,-0.07692 -0.1125,-0.04517 -0.20769,-0.20389c-0.09519,-0.15506 -0.1125,-0.36139 -0.27074,-0.28081c-0.06305,0.03052 0,0.20511 0.06305,0.26616c0.06552,0.06349 0.09519,0.28203 0.07912,0.34552c-0.01484,0.06349 -0.28558,0.14163 -0.15948,0.21976c0.12857,0.07814 0.36717,0 0.33503,0.09523c-0.03091,0.09401 -0.15948,0.21854 -0.01607,0.25029c0.14217,0.03052 0.19038,-0.10866 0.25591,-0.21732c0.06305,-0.11354 0.11003,-0.20633 0.22129,-0.26982c0.11126,-0.06349 0,-0.20511 -0.06305,-0.20511l-0.00001,-0.00001zm0.01484,-3.66028c0.20769,0.07814 0.57363,-0.28203 0.42898,-0.32964c-0.14217,-0.04762 -0.42898,0.32964 -0.42898,0.32964zm-10.99286,-1.55544c-0.03585,0.1404 0.2386,0.20389 0.25467,0.04762c0.01484,-0.1575 -0.22253,-0.17337 -0.25467,-0.04762zm0.42898,-4.19504c-0.07912,0.07936 -0.31772,0.23564 -0.34986,0.37848c-0.03091,0.1404 0.38201,-0.22221 0.49327,-0.36139c0.1125,-0.14285 0.33379,-0.06349 0.38077,-0.14285c0.04945,-0.07692 0.04945,-0.07692 0.04945,-0.07692s-0.17555,-0.03052 -0.31772,-0.07692c-0.14464,-0.04762 -0.31896,0.12453 -0.2386,-0.12697c0.07912,-0.25151 0.31772,-0.20389 0.27074,-0.39313c-0.04821,-0.18802 -0.20769,-0.23564 -0.25591,-0.23564c-0.11126,0 0.01607,0.17215 -0.14341,0.28203c-0.15824,0.10988 -0.33503,0.15628 -0.2386,0.34552c0.09519,0.18802 0.42898,0.32842 0.34986,0.40778l0.00001,0.00001zm-1.25604,4.0058c0.01607,-0.09279 -0.17555,-0.23441 -0.25467,-0.23441c-0.08036,0 -0.4772,-0.09401 -0.4772,-0.09401c-0.0717,0.02808 -0.1669,0.05494 -0.19533,0.09401c-0.00865,-0.01343 -0.0272,-0.0293 -0.06058,-0.04762c-0.17555,-0.09157 -0.38201,0 -0.44629,-0.12453c-0.06181,-0.12697 -0.15701,-0.12697 -0.22129,-0.04762c-0.11621,0.14285 0.03091,0.25151 0.07788,0.28203c0.04698,0.0293 0.22376,0.06349 0.38201,0.04762c0.0989,-0.00977 0.22376,-0.03296 0.25962,-0.07203c0.00495,0.01709 0.01978,0.03296 0.04327,0.05372c0.12734,0.11232 0.20646,0.15872 0.39684,0.14163c0.19286,-0.01221 0.47967,0.09645 0.49574,0.00122l0,-0.00001zm-0.46113,-0.92667c0.08036,0 0.2386,0 0.34986,0.03174c0.11126,0.03052 0.4772,0.06105 0.46113,-0.07814c-0.01607,-0.1404 -0.04698,-0.36261 0.11003,-0.50179c0.16071,-0.14285 0.31772,-0.21976 0.2386,-0.42488c-0.07788,-0.20389 -0.2386,-0.33087 -0.12734,-0.4261c0.11126,-0.09279 0.23736,-0.12453 0.23736,-0.20267c0,-0.07936 -0.26827,0.21976 -0.30165,-0.30034c-0.00618,-0.1111 -0.25467,0.03052 -0.27074,0.14163c-0.01484,0.1111 0.17555,0.20389 -0.12734,0.20389c-0.30288,0 -0.31772,0.23686 -0.38201,0.28325c-0.06429,0.04762 -0.12734,0.06227 -0.25591,0.09279c-0.1261,0.03174 -0.15701,0.15872 -0.18915,0.23686c-0.03091,0.07692 -0.25467,-0.14163 -0.31772,-0.07814c-0.06305,0.06349 -0.01607,0.36139 0.09519,0.61167c0.11374,0.25273 0.39931,0.41022 0.47967,0.41022l0.00002,0.00001zm-1.11511,-0.07814c0.08036,-0.09401 0.04698,-0.23441 -0.07788,-0.21976c-0.12734,0.01587 -0.2386,-0.20511 -0.44506,-0.34552c-0.20769,-0.13918 -0.36593,-0.23686 -0.55756,-0.43953c-0.19038,-0.20389 -0.42898,-0.33087 -0.55632,-0.43831c-0.12857,-0.1111 -0.31772,-0.15872 -0.39808,-0.14163c-0.19657,0.03907 0.28558,0.37726 0.33503,0.42243c0.04821,0.05006 0.47843,0.409 0.47843,0.58359s0.28558,0.58115 0.36593,0.64342c0.07912,0.06349 0.47596,0.2979 0.54025,0.42488c0.06429,0.12575 0.20646,0.15872 0.20646,-0.01587c-0.00124,-0.17337 0.03091,-0.37848 0.10879,-0.47371l0.00001,0.00001zm-1.20783,-1.7752c0.07912,0.28325 0.2386,0.5665 0.30165,0.6776c0.06429,0.10866 0.33503,0.26494 0.43022,0.34307c0.09519,0.07814 0.23736,-0.0293 0.17679,-0.12453c-0.06429,-0.09523 -0.19162,-0.23441 -0.20646,-0.34552c-0.01607,-0.1111 -0.09643,-0.28447 -0.22376,-0.47249c-0.1261,-0.1868 -0.23736,-0.23441 -0.31772,-0.36017c-0.07912,-0.12697 -0.36593,-0.36261 -0.36593,-0.36261c-0.1261,0.01587 -0.1261,0.25029 -0.06305,0.33087c0.06058,0.07692 0.18915,0.03174 0.26827,0.31377l-0.00001,0.00001z" id="svg_24"/>
  <path fill="none" stroke="#e3d1c3" stroke-opacity="null" fill-opacity="null" d="m151.76162,162.07065c-3.57476,0 -6.47289,2.69137 -6.47289,6.0111c0,3.32053 6.47289,14.52361 6.47289,14.52361s6.47289,-11.20308 6.47289,-14.52361c0,-3.31973 -2.89727,-6.0111 -6.47289,-6.0111zm0,8.8836c-1.70798,0 -3.09318,-1.28557 -3.09318,-2.8725s1.3852,-2.8725 3.09318,-2.8725s3.09318,1.28637 3.09318,2.8725s-1.3852,2.8725 -3.09318,2.8725z" id="svg_25"/>
  <ellipse fill="none" stroke-opacity="null" fill-opacity="null" cx="151.20322" cy="132.74906" id="svg_27" rx="13.18587" ry="13.1276" stroke="#e3d1c3"/>
  <path fill="none" stroke-opacity="null" fill-opacity="null" d="m147.00024,128.39695l-6.09026,5.0121l6.09082,5.01116l2.21537,-1.8225l-3.87653,-3.18867l3.87572,-3.18867l-2.21513,-1.82343l0,0l0.00001,0.00001zm8.91356,0l-2.21377,1.82297l3.87574,3.18867l-3.87574,3.18828l2.21377,1.82249l6.09163,-5.01162l-6.09163,-5.01077l0,-0.00002z" id="svg_28" stroke="#e3d1c3"/>
  <line fill="none" stroke="#e3d1c3" stroke-width="null" stroke-opacity="null" fill-opacity="null" x1="153.42251" y1="121.95289" x2="150.15912" y2="141.5332" id="svg_30" stroke-linejoin="null" stroke-linecap="null"/>
  <rect fill="none" stroke-opacity="null" fill-opacity="null" x="215.88785" y="56.30841" width="53.97196" height="59.34579" id="svg_31" rx="4" stroke="#e3d1c3"/>
  <line fill="none" stroke="#e3d1c3" stroke-width="null" stroke-opacity="null" fill-opacity="null" x1="215.87302" y1="65.07937" x2="269.98557" y2="65.22367" id="svg_32" stroke-linejoin="null" stroke-linecap="null"/>
  <path fill="none" stroke="#e3d1c3" stroke-width="null" stroke-opacity="null" fill-opacity="null" d="m219.97613,60.8203l0,0c0,-1.39466 1.1306,-2.52525 2.52526,-2.52525l0,0c0.66974,0 1.31205,0.26605 1.78563,0.73963c0.47358,0.47358 0.73963,1.11588 0.73963,1.78562l0,0c0,1.39466 -1.1306,2.52525 -2.52526,2.52525l0,0c-1.39466,0 -2.52526,-1.13059 -2.52526,-2.52525zm1.26263,0l0,0c0,0.69733 0.5653,1.26263 1.26263,1.26263c0.69733,0 1.26263,-0.5653 1.26263,-1.26263c0,-0.69733 -0.5653,-1.26263 -1.26263,-1.26263l0,0c-0.69733,0 -1.26263,0.5653 -1.26263,1.26263z" id="svg_33"/>
  <path fill="none" stroke="#e3d1c3" stroke-width="null" stroke-opacity="null" fill-opacity="null" d="m228.3478,60.8239l0,0c0,-1.47435 1.1306,-2.66955 2.52526,-2.66955l0,0c0.66974,0 1.31205,0.28126 1.78563,0.78189c0.47358,0.50064 0.73963,1.17965 0.73963,1.88766l0,0c0,1.47435 -1.1306,2.66955 -2.52526,2.66955l0,0c-1.39466,0 -2.52526,-1.1952 -2.52526,-2.66955zm1.26263,0l0,0c0,0.73718 0.5653,1.33478 1.26263,1.33478c0.69733,0 1.26263,-0.5976 1.26263,-1.33478c0,-0.73718 -0.5653,-1.33478 -1.26263,-1.33478l0,0c-0.69733,0 -1.26263,0.5976 -1.26263,1.33478z" id="svg_34"/>
  <line fill="none" stroke="#e3d1c3" stroke-width="NaN" stroke-opacity="null" fill-opacity="null" x1="220.34632" y1="71.13997" x2="253.53535" y2="71.42857" id="svg_35" stroke-linejoin="null" stroke-linecap="null" stroke-dasharray="2,2"/>
  <line fill="none" stroke="#e3d1c3" stroke-width="NaN" stroke-dasharray="5,2,2,2,2,2" stroke-opacity="null" fill-opacity="null" x1="220.34632" y1="81.52958" x2="238.96104" y2="81.67388" id="svg_37" stroke-linejoin="null" stroke-linecap="null"/>
  <line fill="none" stroke="#e3d1c3" stroke-width="NaN" stroke-dasharray="5,5" stroke-opacity="null" fill-opacity="null" x1="220.49062" y1="87.15729" x2="248.91775" y2="87.44589" id="svg_38" stroke-linejoin="null" stroke-linecap="null"/>
  <line fill="none" stroke="#e3d1c3" stroke-width="NaN" stroke-dasharray="5,5" stroke-opacity="null" fill-opacity="null" x1="220.77922" y1="75.61328" x2="255.41126" y2="75.75758" id="svg_39" stroke-linejoin="null" stroke-linecap="null"/>
  <path fill="none" stroke="#e3d1c3" stroke-width="null" stroke-opacity="null" fill-opacity="null" d="m272.70463,133.11236c-2.21237,-1.91547 -4.59854,-3.44989 -6.55593,-3.65907c-0.10656,-0.01357 -0.21692,-0.02148 -0.33363,-0.02375l-12.88226,0c-0.20551,0 -0.40848,0.07124 -0.55309,0.20353c-0.14335,0.1289 -0.22834,0.30982 -0.22834,0.49413l0,29.11655c0,0.18318 0.07992,0.35844 0.22834,0.49187c0.14842,0.13117 0.34378,0.2024 0.55309,0.2024l23.2959,0c0.20551,0 0.40213,-0.07011 0.55056,-0.2024c0.14842,-0.1323 0.23088,-0.30756 0.23088,-0.49187l0,-19.37522c-0.04567,-2.24904 -2.02209,-4.70162 -4.3055,-6.75617l-0.00002,0zm2.7401,25.43147l-21.73303,0l0,-27.72347l12.10463,0l0,0.00226c0.52772,-0.02827 0.98314,0.43647 1.33199,1.49936c0.31714,1.01201 0.39706,2.33159 0.39579,3.24635c0.00254,0.67053 -0.03425,1.12056 -0.03425,1.12056l-0.06216,0.73724l0.83218,0.00792c0.00381,0 1.92314,0.02035 3.80569,0.40141c1.80897,0.34827 3.22342,1.04254 3.35535,1.82841c0.00507,0.07011 0.00634,0.14021 0.00507,0.20579l0,18.67417l-0.00127,0l0.00001,0z" id="svg_42"/>
  <line fill="none" stroke="#e3d1c3" stroke-width="null" stroke-opacity="null" fill-opacity="null" x1="257.48988" y1="211.33603" x2="423.07692" y2="211.33603" id="svg_44" stroke-linejoin="null" stroke-linecap="null"/>
  <line fill="none" stroke="#e3d1c3" stroke-width="null" stroke-opacity="null" fill-opacity="null" x1="248.19241" y1="211.14427" x2="117.1685" y2="211.74668" id="svg_45" stroke-linejoin="null" stroke-linecap="null"/>
  <rect fill="none" stroke="#e3d1c3" stroke-width="null" stroke-opacity="null" fill-opacity="null" x="315.05978" y="88.55409" width="66.86737" height="49.39752" id="svg_46" rx="5"/>
  <line fill="none" stroke="#e3d1c3" stroke-width="null" stroke-opacity="null" fill-opacity="null" x1="315.16755" y1="94.53263" x2="382.01058" y2="94.53263" id="svg_47" stroke-linejoin="null" stroke-linecap="null"/>
  <line fill="none" stroke="#e3d1c3" stroke-width="NaN" stroke-opacity="null" fill-opacity="null" x1="320.10582" y1="91.71076" x2="333.33333" y2="91.53439" id="svg_51" stroke-linejoin="null" stroke-linecap="null" stroke-dasharray="2,2"/>
  <path fill="none" stroke="#e3d1c3" stroke-width="NaN" stroke-dasharray="2,2" stroke-opacity="null" fill-opacity="null" d="m249.65481,87.06893c-0.00872,-0.00847 -0.01812,-0.01525 -0.02584,-0.01618c-0.00042,-0.00006 -0.00085,-0.00009 -0.00131,-0.0001l-0.05077,0c-0.00081,0 -0.00161,0.00031 -0.00218,0.0009c-0.00056,0.00057 -0.0009,0.00137 -0.0009,0.00218l0,0.12875c0,0.00081 0.00031,0.00158 0.0009,0.00217c0.00058,0.00058 0.00135,0.00089 0.00218,0.00089l0.09182,0c0.00081,0 0.00158,-0.00031 0.00217,-0.00089c0.00058,-0.00058 0.00091,-0.00136 0.00091,-0.00217l0,-0.08567c-0.00018,-0.00994 -0.00797,-0.02079 -0.01697,-0.02987l-0.00001,-0.00001zm0.0108,0.11245l-0.08566,0l0,-0.12259l0.04771,0l0,0.00001c0.00208,-0.00012 0.00387,0.00193 0.00525,0.00663c0.00125,0.00447 0.00156,0.01031 0.00156,0.01435c0.00001,0.00296 -0.00013,0.00495 -0.00013,0.00495l-0.00024,0.00326l0.00328,0.00003c0.00001,0 0.00758,0.00009 0.015,0.00177c0.00713,0.00154 0.0127,0.00461 0.01322,0.00808c0.00002,0.00031 0.00002,0.00062 0.00002,0.00091l0,0.08257l0,0l-0.00001,0.00003z" id="svg_52"/>
  <path fill="none" stroke-width="NaN" stroke-opacity="null" fill-opacity="null" d="m329.31436,127.02867c1.54152,0 2.99089,0.58392 4.07967,1.64322c1.09129,1.05978 1.69127,2.47186 1.69127,3.97455l2.37639,0c0,-4.36513 -3.65548,-7.91567 -8.14783,-7.91567l0,2.29789l0.0005,0l0,0.00001zm0.003,-4.07438c5.49549,0 9.9653,4.34914 9.9653,9.69457l2.37539,0c0,-6.61262 -5.53606,-11.99295 -12.34119,-11.99295l0,2.29838l0.0005,0zm3.28537,8.08818c0,0.87952 -0.73671,1.59283 -1.64519,1.59283s-1.64519,-0.71331 -1.64519,-1.59283c0,-0.87855 0.73671,-1.59186 1.64519,-1.59186s1.64519,0.71282 1.64519,1.59186z" id="svg_53" stroke="#e3d1c3"/>
  <path fill="none" stroke="#e3d1c3" stroke-width="NaN" stroke-opacity="null" fill-opacity="null" d="m305.53631,122.44254c-0.08615,-3.18393 -3.09119,-5.74226 -6.78732,-5.74389c-2.47033,0.00081 -4.62789,1.14569 -5.81342,2.85369c-0.55718,-0.26533 -1.19864,-0.41949 -1.88224,-0.41949c-2.13415,0.00162 -3.87031,1.46538 -3.94803,3.29914c-2.2409,0.63776 -3.86281,2.45448 -3.86469,4.61361c0,2.68735 2.51621,4.86839 5.61864,4.86839l0,-0.00162l4.93597,0l-2.02833,2.75713l1.85134,-0.33348l-2.47595,7.23037l8.55719,-8.19674l-2.00211,0.18419l2.02926,-1.64146l3.99766,0c3.10149,0 5.61864,-2.18104 5.61864,-4.86839c-0.00187,-2.13966 -1.59569,-3.94907 -3.80663,-4.60144l0.00002,-0.00001zm-1.81201,7.84865l-14.86598,0c-2.0686,-0.00487 -3.74295,-1.45403 -3.7467,-3.2464c-0.00187,-1.60819 1.35784,-2.93564 3.13707,-3.18961c0.24816,-0.03489 0.47009,-0.15498 0.61524,-0.33592c0.14515,-0.18094 0.19853,-0.40326 0.15264,-0.6191c-0.02622,-0.12009 -0.04214,-0.23368 -0.04214,-0.34403c0.00375,-0.99396 0.93176,-1.79806 2.0789,-1.79968c0.60588,0 1.13965,0.22557 1.52921,0.59313c0.21819,0.20853 0.54969,0.30427 0.86808,0.25072c0.32026,-0.05355 0.58621,-0.2491 0.70046,-0.51118c0.70139,-1.6163 2.4928,-2.76849 4.59886,-2.76687c2.71474,0.00325 4.91069,1.90679 4.91724,4.25903c0,0.13064 -0.00843,0.26452 -0.02528,0.40326c-0.04589,0.41949 0.28561,0.79842 0.7632,0.8755c1.74178,0.27912 3.0659,1.59521 3.06309,3.18311c-0.00375,1.79319 -1.67529,3.24316 -3.74389,3.24803l0,0.00001z" id="svg_55"/>
  <path fill="none" stroke="#e3d1c3" stroke-width="NaN" stroke-opacity="null" fill-opacity="null" d="m351.01678,179.42195l-13.9554,-11.99262l25.09225,11.99262l-25.09225,11.99262l13.9554,-11.99262z" id="svg_56"/>
  <path fill="none" stroke="#e3d1c3" stroke-width="NaN" stroke-opacity="null" fill-opacity="null" d="m350.0019,110.5572c1.39704,2.28673 1.66977,2.98118 1.20786,3.07549c-0.90231,0.18423 -0.72099,1.23787 0.54195,3.14918c1.58386,2.397 4.68615,3.86897 7.60016,3.60612c1.13105,-0.10202 2.40975,-0.31258 2.84156,-0.4679c0.43181,-0.15533 0.16683,0.13403 -0.58883,0.64301c-3.78026,2.5462 -8.44905,2.36883 -12.17372,-0.46247c-1.4851,-1.1289 -3.52836,-4.42722 -3.52836,-5.69564c0,-0.35933 -0.33686,-0.70751 -0.74859,-0.77373c-0.67332,-0.10829 -0.5829,-0.39342 0.89939,-2.83599c0.90639,-1.49358 1.7596,-2.82273 1.89603,-2.95367c0.13643,-0.13094 1.06008,1.09108 2.05255,2.7156l0,0zm12.00874,4.40853c-1.39704,-2.28673 -1.66977,-2.98118 -1.20787,-3.07549c0.90231,-0.18423 0.72099,-1.23787 -0.54194,-3.14918c-1.58386,-2.397 -4.68615,-3.86898 -7.60016,-3.60613c-1.13105,0.10202 -2.40975,0.31258 -2.84156,0.4679c-0.43181,0.15532 -0.16683,-0.13403 0.58883,-0.64301c3.78026,-2.5462 8.44905,-2.36884 12.17372,0.46247c1.4851,1.12889 3.52836,4.42722 3.52836,5.69563c0,0.35934 0.33687,0.70751 0.74858,0.77373c0.67333,0.10829 0.5829,0.39342 -0.89939,2.83599c-0.90639,1.49358 -1.75961,2.82273 -1.89603,2.95367c-0.13643,0.13094 -1.06008,-1.09107 -2.05255,-2.71559l0,0l0.00001,0.00001z" id="svg_58"/>
  <path fill="none" stroke="#e3d1c3" stroke-width="NaN" stroke-opacity="null" fill-opacity="null" opacity="0.5" id="svg_62"/>
  <path fill="none" stroke="#e3d1c3" stroke-width="NaN" stroke-opacity="null" fill-opacity="null" opacity="0.5" id="svg_63"/>
  <path fill="none" stroke-width="NaN" stroke-opacity="null" fill-opacity="null" d="m209.07794,210.17039c0,0.26168 -0.24409,0.47369 -0.54538,0.47369l-3.49248,0c-0.30129,0 -0.54538,-0.21201 -0.54538,-0.47369l0,-6.44454c0,-0.26166 0.24409,-0.47369 0.54538,-0.47369l3.49248,0c0.30129,0 0.54538,0.21203 0.54538,0.47369l0,6.44454zm-12.93011,0c0,0.26168 -0.24414,0.47369 -0.54538,0.47369l-3.49252,0c-0.30124,0 -0.54538,-0.21201 -0.54538,-0.47369l0,-6.44454c0,-0.26166 0.24414,-0.47369 0.54538,-0.47369l3.49252,0c0.30124,0 0.54538,0.21203 0.54538,0.47369l0,6.44454zm4.21938,-17.47504c-6.31981,0 -11.45004,4.41556 -11.52882,9.88788l2.0008,0c0.06488,-4.52293 4.30515,-8.17226 9.52802,-8.17226c5.22287,0 9.46315,3.64933 9.52727,8.17226l2.00075,0c-0.07799,-5.47232 -5.20972,-9.88788 -11.52802,-9.88788l0,0zm-11.5126,14.90058l1.96449,0l0,-5.02277l-1.96449,0l0,5.02277zm21.02365,-5.02345l0,5.02279l2.03706,0l0,-5.02279l-2.03706,0z" id="svg_64" stroke="#e3d1c3"/>
 </g>
</svg>